<?xml version="1.0" standalone="no"?>
<!DOCTYPE svg PUBLIC "-//W3C//DTD SVG 20010904//EN"
 "http://www.w3.org/TR/2001/REC-SVG-20010904/DTD/svg10.dtd">
<svg version="1.0" xmlns="http://www.w3.org/2000/svg"
 width="2048.000000pt" height="1857.000000pt" viewBox="0 0 2048.000000 1857.000000"
 preserveAspectRatio="xMidYMid meet">

<g transform="translate(0.000000,1857.000000) scale(0.100000,-0.100000)"
fill="#000000" stroke="none">
<path d="M0 9285 l1 -9285 10239 0 10240 0 0 9285 0 9285 -10240 0 -10240 0 0
-9285z m14634 4125 c49 -18 71 -96 56 -198 -18 -125 -59 -245 -149 -427 -116
-235 -269 -463 -471 -705 -26 -30 -123 -147 -216 -260 -157 -190 -265 -321
-839 -1020 -275 -334 -1145 -1380 -1315 -1580 -36 -42 -144 -171 -240 -286
-139 -165 -347 -412 -487 -576 -15 -17 -11 -87 57 -823 17 -175 30 -336 30
-356 0 -32 -13 -53 -88 -146 -48 -59 -104 -130 -124 -156 l-37 -48 -54 93
c-30 51 -146 255 -257 453 -112 198 -211 372 -222 387 l-19 27 63 78 c35 43
106 137 158 208 51 72 138 190 192 263 54 73 98 135 98 138 0 6 -183 -161
-544 -494 -114 -106 -249 -227 -298 -269 -80 -68 -88 -72 -73 -42 30 58 368
584 624 971 18 28 29 49 24 47 -11 -4 -334 -336 -489 -502 l-101 -108 -289
111 c-159 62 -383 148 -499 192 -115 44 -212 82 -215 85 -2 2 56 64 129 137
l133 133 141 12 c78 7 342 30 587 52 245 21 448 39 452 39 4 0 90 100 192 223
101 122 307 371 458 552 150 182 336 406 413 498 77 93 140 174 140 179 0 6
-90 53 -200 105 -110 52 -272 128 -360 170 -88 42 -252 119 -365 173 -113 53
-270 128 -350 165 -584 274 -960 457 -960 468 0 7 81 94 259 280 l37 37 344
-15 c190 -8 518 -21 730 -30 212 -8 422 -17 466 -21 l82 -6 48 60 c166 202
257 302 274 302 46 0 270 -184 270 -222 0 -5 -22 -42 -49 -83 l-49 -73 86 -6
c48 -3 249 -11 446 -17 l360 -11 25 29 c15 17 61 71 103 121 l78 92 -363 0
c-199 0 -372 3 -385 6 -12 4 -30 21 -39 38 -9 17 -43 59 -75 93 l-59 61 46 32
c70 48 162 87 247 104 63 13 157 16 501 16 l424 0 139 167 c354 426 595 684
772 825 243 193 488 300 596 258z m-6389 -1279 c127 -33 219 -85 306 -171 72
-72 138 -161 683 -925 138 -194 231 -323 391 -545 34 -47 174 -242 310 -435
137 -192 293 -412 347 -488 59 -82 96 -143 91 -150 -12 -21 -136 -167 -141
-167 -3 0 3 10 14 21 19 21 19 22 -1 16 -43 -14 -336 -28 -660 -33 -341 -5
-589 -13 -583 -20 2 -1 22 -5 43 -8 22 -2 42 -5 44 -5 2 -1 -8 -12 -23 -26
-15 -14 -24 -31 -21 -38 4 -6 -1 -3 -9 7 -14 17 -16 17 -16 3 0 -9 6 -22 13
-29 8 -7 12 -20 9 -30 -3 -14 0 -17 14 -12 18 5 18 5 2 -6 -18 -11 -25 -60
-10 -60 5 0 9 -7 9 -15 0 -8 -4 -15 -8 -15 -3 0 -10 -10 -14 -22 -17 -55 -16
-57 23 -61 31 -3 29 -4 -13 -5 -48 -1 -51 0 -77 41 -34 53 -633 870 -983 1342
-28 39 -94 129 -146 200 -52 72 -183 248 -290 393 -178 243 -443 604 -593 812
-275 380 -326 451 -326 456 0 4 345 4 768 1 739 -5 770 -5 847 -26z m-1533
-626 c41 -55 123 -167 182 -248 59 -82 158 -217 220 -300 61 -84 161 -219 221
-302 59 -82 179 -247 265 -365 86 -118 217 -298 290 -400 73 -102 146 -201
160 -220 15 -19 75 -100 133 -178 l107 -144 0 -154 c0 -121 -3 -154 -12 -148
-10 6 -10 4 0 -7 16 -17 18 -2355 2 -2440 -15 -82 -64 -171 -120 -222 -95 -86
-54 -81 -837 -85 l-693 -3 0 2662 c0 1464 2 2660 4 2658 2 -2 37 -49 78 -104z
m6727 -1172 c46 -219 88 -422 95 -452 l11 -55 64 72 c35 40 71 72 80 72 45 0
209 -139 244 -206 l16 -31 -155 -186 c-85 -102 -154 -191 -154 -198 0 -7 16
-84 34 -173 19 -89 51 -249 71 -356 44 -237 174 -909 181 -931 3 -10 -42 -74
-122 -173 -70 -86 -130 -156 -134 -156 -4 0 -56 71 -115 158 -60 86 -181 263
-270 392 -249 363 -436 633 -707 1021 -136 196 -248 360 -248 363 0 8 49 69
505 617 203 245 402 484 440 532 39 47 73 86 76 86 3 1 43 -178 88 -396z
m-724 -1928 c115 -165 279 -401 366 -525 86 -124 225 -324 308 -445 83 -121
155 -220 160 -220 7 0 168 179 288 320 l42 50 -1 -647 -2 -648 -535 -2 c-733
-4 -767 -3 -843 23 -122 40 -206 128 -245 255 -18 60 -20 371 -14 2183 l1 333
133 -188 c73 -104 227 -324 342 -489z m-3530 545 c3 -6 -1 -7 -9 -4 -18 7 -21
14 -7 14 6 0 13 -4 16 -10z m122 -11 c30 -2 25 -4 -22 -9 -81 -10 -150 -12
-141 -3 4 4 23 6 42 4 24 -2 36 2 40 13 5 12 11 13 24 6 10 -6 36 -11 57 -11z
m-2468 -5532 c94 -33 157 -75 228 -151 100 -106 153 -241 153 -388 0 -99 -14
-166 -55 -253 -43 -95 -99 -162 -181 -218 -180 -123 -415 -141 -609 -47 -203
98 -317 283 -316 510 0 107 17 183 60 268 79 157 221 263 406 303 73 15 236 3
314 -24z m6601 7 c241 -71 410 -297 410 -549 0 -375 -355 -648 -729 -560 -107
26 -188 72 -271 155 -116 115 -161 227 -161 400 0 152 38 263 130 377 77 94
208 170 334 193 70 12 220 4 287 -16z m-8652 -11 c16 -46 325 -673 331 -673 3
1 78 149 166 331 88 182 166 339 173 350 12 17 26 19 148 19 l134 0 0 -565 0
-565 -105 0 -105 0 -1 408 -1 407 -171 -348 -172 -347 -73 2 -73 3 -162 334
-162 335 -3 -397 -2 -397 -105 0 -105 0 0 565 0 565 139 0 139 0 10 -27z
m3016 -81 c44 -59 174 -230 290 -380 l211 -273 5 378 5 378 103 3 102 3 0
-566 0 -565 -99 0 -98 0 -141 188 c-78 103 -208 274 -289 381 l-148 194 -3
-381 -2 -382 -105 0 -105 0 0 565 0 565 98 0 97 -1 79 -107z m1753 -67 c77
-177 375 -866 398 -922 l14 -33 -113 0 -114 0 -47 115 -48 115 -277 0 -278 0
-47 -115 -48 -115 -108 0 c-60 0 -109 4 -109 8 0 8 99 237 270 627 50 116 119
274 153 353 l61 143 110 -3 109 -3 74 -170z m1238 160 c210 -37 377 -189 430
-391 19 -71 21 -231 4 -299 -49 -199 -191 -343 -395 -401 -47 -14 -116 -18
-346 -22 l-288 -4 0 566 0 566 258 0 c176 -1 282 -5 337 -15z m1417 -12 c167
-62 250 -183 251 -368 2 -149 -40 -245 -141 -322 -78 -59 -152 -75 -364 -81
l-188 -4 0 -164 0 -164 -105 0 -105 0 0 566 0 566 298 -4 c273 -3 302 -5 354
-25z m2554 16 c129 -24 232 -99 282 -207 24 -51 27 -69 27 -167 0 -98 -3 -116
-26 -166 -34 -71 -86 -129 -144 -160 -25 -13 -43 -29 -41 -35 3 -7 56 -90 119
-185 63 -96 117 -180 121 -186 6 -10 -20 -13 -116 -13 l-123 0 -36 58 c-20 31
-72 112 -114 180 l-78 122 -133 0 -134 0 0 -180 0 -180 -105 0 -105 0 0 565 0
565 273 0 c155 0 299 -5 333 -11z m1452 -86 l-3 -98 -177 -3 -178 -2 0 -465 0
-465 -110 0 -110 0 0 465 0 465 -175 0 -175 0 0 100 0 100 465 0 466 0 -3 -97z"/>
<path d="M8918 9233 c7 -3 16 -2 19 1 4 3 -2 6 -13 5 -11 0 -14 -3 -6 -6z"/>
<path d="M6528 3227 c-60 -23 -123 -64 -158 -104 -128 -146 -121 -402 14 -538
170 -170 474 -119 580 97 95 195 21 431 -164 524 -45 23 -71 29 -145 31 -59 2
-103 -1 -127 -10z"/>
<path d="M13126 3216 c-78 -33 -156 -110 -192 -190 -24 -52 -28 -74 -28 -156
-1 -148 49 -252 157 -327 64 -43 115 -57 212 -57 66 0 91 5 142 28 76 35 143
103 181 184 24 50 27 69 27 162 0 97 -2 110 -32 172 -38 81 -97 142 -172 176
-83 39 -212 42 -295 8z"/>
<path d="M9360 3180 c0 -5 -41 -108 -91 -227 -50 -120 -93 -224 -96 -230 -4
-10 38 -13 191 -13 138 0 196 3 196 11 0 6 -40 110 -90 230 -49 120 -90 223
-90 229 0 5 -4 10 -10 10 -5 0 -10 -4 -10 -10z"/>
<path d="M10416 3230 c-1 -3 -1 -169 -1 -370 l0 -365 105 -3 c274 -7 398 47
474 207 28 60 31 75 31 166 0 91 -3 106 -31 166 -37 78 -87 129 -163 167 -53
26 -65 27 -234 32 -99 3 -180 3 -181 0z"/>
<path d="M11770 3030 l0 -200 26 -6 c14 -4 90 -5 168 -2 128 4 149 7 192 29
64 33 94 88 94 175 0 100 -28 150 -105 185 -34 16 -66 19 -207 19 l-168 0 0
-200z"/>
<path d="M14377 3043 l2 -188 183 0 c208 0 228 5 275 76 56 84 36 205 -43 265
l-37 29 -191 3 -191 3 2 -188z"/>
</g>
</svg>
